<svg width="32" height="32" viewBox="0 0 32 32" fill="none" xmlns="http://www.w3.org/2000/svg">
<circle cx="16" cy="16" r="8.425" stroke="white" stroke-width="1.15"/>
<path d="M15.5516 11.9083C15.7351 11.5367 16.2649 11.5367 16.4484 11.9083L17.4288 13.8945C17.5015 14.042 17.6421 14.1442 17.8048 14.168L19.9981 14.4886C20.4081 14.5485 20.5715 15.0524 20.2747 15.3415L18.6884 16.8865C18.5705 17.0014 18.5166 17.1669 18.5445 17.3292L18.9187 19.5113C18.9888 19.9198 18.56 20.2313 18.1932 20.0384L16.2327 19.0074C16.087 18.9308 15.913 18.9308 15.7673 19.0074L13.8068 20.0384C13.44 20.2313 13.0112 19.9198 13.0813 19.5113L13.4555 17.3292C13.4834 17.1669 13.4295 17.0014 13.3116 16.8865L11.7253 15.3415C11.4285 15.0524 11.5919 14.5485 12.0019 14.4886L14.1952 14.168C14.3579 14.1442 14.4985 14.042 14.5712 13.8945L15.5516 11.9083Z" stroke="white" stroke-width="1.15" stroke-linecap="round" stroke-linejoin="round"/>
</svg>
