<svg width="32" height="32" viewBox="0 0 32 32" fill="none" xmlns="http://www.w3.org/2000/svg">
<path d="M20.7311 7.575H20.7356C22.772 7.575 24.4229 9.22587 24.4229 11.2623V11.2668C24.4229 13.3033 22.772 14.9541 20.7356 14.9541H20.7311C18.6946 14.9541 17.0437 13.3033 17.0437 11.2668V11.2623C17.0437 9.22587 18.6946 7.575 20.7311 7.575Z" stroke="white" stroke-width="1.15"/>
<path d="M9.81754 7H15.0025V15.0025H7V9.81754C7 8.26475 8.26025 7 9.81754 7Z" stroke="white" stroke-width="1.15" stroke-linecap="round" stroke-linejoin="round"/>
<path d="M7 16.998H15.0025V25.0006H9.81754C8.26475 25.0006 7 23.7403 7 22.183V16.998Z" stroke="white" stroke-width="1.15" stroke-linecap="round" stroke-linejoin="round"/>
<path d="M25.0104 16.998H17.0078V25.0006H22.1928C23.7456 25.0006 25.0104 23.7403 25.0104 22.183V16.998Z" stroke="white" stroke-width="1.15" stroke-linecap="round" stroke-linejoin="round"/>
</svg>
