<svg width="120" height="120" viewBox="0 0 120 120" fill="none" xmlns="http://www.w3.org/2000/svg">
<path d="M120 60C120 109.264 109.264 120 60 120C10.7357 120 0 109.264 0 60C0 10.7357 10.7357 0 60 0C109.264 0 120 10.7357 120 60Z" fill="#F4F4F4"/>
<path d="M85.7698 60.7698C85.6514 60.5269 85.5898 60.2602 85.5898 59.99C85.5898 59.7198 85.6514 59.4531 85.7698 59.2102L88.0091 54.6415C88.6091 53.4236 88.7108 52.0199 88.2927 50.7283C87.8746 49.4366 86.9696 48.3588 85.7698 47.7235L81.2711 45.3342C81.0322 45.2091 80.8256 45.0302 80.6677 44.8116C80.5098 44.5929 80.4049 44.3406 80.3613 44.0745L79.4816 39.0759C79.2508 37.7369 78.5059 36.5411 77.4058 35.7436C76.3058 34.9461 74.9376 34.6101 73.5932 34.8071L68.5946 35.5169C68.3182 35.5579 68.0361 35.5321 67.7717 35.4417C67.5073 35.3512 67.2684 35.1988 67.0751 34.9971L63.4161 31.4781C62.4419 30.5303 61.1363 30 59.7771 30C58.4179 30 57.1124 30.5303 56.1382 31.4781L52.4792 34.9971C52.2863 35.1858 52.0524 35.3272 51.7957 35.4105C51.539 35.4937 51.2665 35.5165 50.9996 35.477L46.001 34.7672C44.6567 34.5701 43.2885 34.9061 42.1884 35.7036C41.0884 36.5011 40.3435 37.6969 40.1127 39.0359L39.233 44.0345C39.1893 44.3006 39.0844 44.553 38.9266 44.7716C38.7687 44.9902 38.5621 45.1691 38.3232 45.2942L33.7845 47.7235C32.5829 48.3571 31.6758 49.4342 31.2557 50.726C30.8357 52.0178 30.936 53.4224 31.5351 54.6415L33.7845 59.2102C33.9029 59.4531 33.9645 59.7198 33.9645 59.99C33.9645 60.2602 33.9029 60.5269 33.7845 60.7698L31.5351 65.3485C30.9364 66.5661 30.8365 67.9693 31.2566 69.2594C31.6767 70.5496 32.5837 71.6249 33.7845 72.2565L38.2832 74.6459C38.5221 74.7709 38.7287 74.9498 38.8866 75.1684C39.0444 75.3871 39.1493 75.6394 39.193 75.9055L40.0727 80.9041C40.2825 82.1143 40.9133 83.2114 41.8535 84.0016C42.7938 84.7919 43.983 85.2244 45.2113 85.2229C45.4608 85.2427 45.7115 85.2427 45.9611 85.2229L50.9596 84.5131C51.232 84.4657 51.5118 84.4836 51.7759 84.5653C52.04 84.647 52.2811 84.7901 52.4792 84.9829L56.1382 88.5219C57.1124 89.4697 58.4179 90 59.7771 90C61.1363 90 62.4419 89.4697 63.4161 88.5219L67.0751 84.9829C67.268 84.7942 67.5019 84.6528 67.7586 84.5695C68.0153 84.4863 68.2877 84.4635 68.5547 84.5031L73.5532 85.2129C74.8976 85.4099 76.2658 85.0739 77.3658 84.2764C78.4659 83.4789 79.2108 82.2831 79.4416 80.9441L80.3213 75.9455C80.3649 75.6794 80.4698 75.427 80.6277 75.2084C80.7856 74.9898 80.9922 74.8109 81.2311 74.6858L85.7698 72.2565C86.9706 71.6249 87.8776 70.5496 88.2977 69.2594C88.7178 67.9693 88.6179 66.5661 88.0191 65.3485L85.7698 60.7698Z" stroke="#0A090A" stroke-width="2.5" stroke-linecap="round" stroke-linejoin="round"/>
<path d="M71.9021 57.6655C72.5866 57.0028 72.2057 55.8489 71.2653 55.7128L64.3256 54.7129C64.1351 54.6833 63.9744 54.5708 63.8911 54.3992L60.7843 48.139C60.3617 47.2869 59.1416 47.2869 58.7191 48.139L55.6123 54.3933C55.5289 54.5649 55.3682 54.6773 55.1778 54.7069L48.2381 55.7069C47.2918 55.843 46.9168 56.9969 47.6012 57.6596L52.6245 62.5293C52.7614 62.6595 52.8209 62.8489 52.7911 63.0382L51.6068 69.908C51.4461 70.8429 52.434 71.5588 53.2792 71.115L59.4868 67.8725C59.6535 67.7837 59.8558 67.7837 60.0225 67.8725L66.2301 71.115C67.0753 71.5588 68.0633 70.8429 67.9026 69.908L66.7182 63.0382C66.6884 62.8548 66.7479 62.6654 66.8848 62.5293L71.9081 57.6596L71.9021 57.6655Z" stroke="#0A090A" stroke-width="2.5" stroke-linecap="round" stroke-linejoin="round"/>
</svg>
